<?xml version="1.0" encoding="utf-8"?>
<!-- Generator: Adobe Illustrator 19.1.0, SVG Export Plug-In . SVG Version: 6.00 Build 0)  -->
<!DOCTYPE svg PUBLIC "-//W3C//DTD SVG 1.1//EN" "http://www.w3.org/Graphics/SVG/1.1/DTD/svg11.dtd">
<svg version="1.1" id="Layer_1" xmlns="http://www.w3.org/2000/svg" xmlns:xlink="http://www.w3.org/1999/xlink" x="0px" y="0px"
	 viewBox="-532 113 524 377" style="enable-background:new -532 113 524 377;" xml:space="preserve">
<rect x="-206.2" y="162.7" width="2" height="2"/>
<rect x="-206.2" y="164.7" width="2" height="2"/>
<rect x="-206.2" y="166.7" width="2" height="2"/>
<rect x="-206.2" y="170.7" width="2" height="2"/>
<rect x="-206.2" y="172.7" width="2" height="2"/>
<rect x="-206.2" y="174.7" width="2" height="2"/>
<rect x="-204.2" y="164.7" width="2" height="2"/>
<rect x="-202.2" y="162.7" width="2" height="2"/>
<rect x="-202.2" y="164.7" width="2" height="2"/>
<rect x="-202.2" y="166.7" width="2" height="2"/>
<rect x="-202.2" y="170.7" width="2" height="2"/>
<rect x="-204.2" y="170.7" width="2" height="2"/>
<rect x="-202.2" y="174.7" width="2" height="2"/>
<rect x="-198.2" y="162.7" width="2" height="2"/>
<rect x="-198.2" y="166.7" width="2" height="2"/>
<rect x="-198.2" y="170.7" width="2" height="2"/>
<rect x="-198.2" y="174.7" width="2" height="2"/>
<rect x="-194.2" y="162.7" width="2" height="2"/>
<rect x="-198.2" y="162.7" width="2" height="2"/>
<rect x="-194.2" y="166.7" width="2" height="2"/>
<rect x="-198.2" y="164.7" width="2" height="2"/>
<rect x="-196.2" y="162.7" width="2" height="2"/>
<rect x="-198.2" y="172.7" width="2" height="2"/>
<rect x="-194.2" y="170.7" width="2" height="2"/>
<rect x="-194.2" y="168.7" width="2" height="2"/>
<rect x="-194.2" y="172.7" width="2" height="2"/>
<rect x="-194.2" y="174.7" width="2" height="2"/>
<rect x="-292.2" y="162.7" width="2" height="2"/>
<rect x="-292.2" y="164.7" width="2" height="2"/>
<rect x="-292.2" y="166.7" width="2" height="2"/>
<rect x="-292.2" y="168.7" width="2" height="2"/>
<rect x="-292.2" y="170.7" width="2" height="2"/>
<rect x="-290.2" y="174.7" width="2" height="2"/>
<rect x="-292.2" y="174.7" width="2" height="2"/>
<rect x="-290.2" y="164.7" width="2" height="2"/>
<rect x="-288.2" y="162.7" width="2" height="2"/>
<rect x="-288.2" y="164.7" width="2" height="2"/>
<rect x="-288.2" y="166.7" width="2" height="2"/>
<rect x="-288.2" y="170.7" width="2" height="2"/>
<rect x="-290.2" y="170.7" width="2" height="2"/>
<rect x="-288.2" y="174.7" width="2" height="2"/>
<rect x="-278.9" y="162.7" width="2" height="2"/>
<rect x="-278.9" y="164.7" width="2" height="2"/>
<rect x="-278.9" y="166.7" width="2" height="2"/>
<rect x="-278.9" y="168.7" width="2" height="2"/>
<rect x="-278.9" y="170.7" width="2" height="2"/>
<rect x="-278.9" y="172.7" width="2" height="2"/>
<rect x="-278.9" y="174.7" width="2" height="2"/>
<rect x="-276.9" y="162.7" width="2" height="2"/>
<rect x="-274.9" y="162.7" width="2" height="2"/>
<rect x="-274.9" y="164.7" width="2" height="2"/>
<rect x="-274.9" y="166.7" width="2" height="2"/>
<rect x="-274.9" y="168.7" width="2" height="2"/>
<rect x="-274.9" y="170.7" width="2" height="2"/>
<rect x="-274.9" y="172.7" width="2" height="2"/>
<rect x="-274.9" y="174.7" width="2" height="2"/>
<rect x="-276.9" y="174.7" width="2" height="2"/>
<rect x="-276.9" y="166.7" width="2" height="2"/>
<rect x="-276.9" y="170.7" width="2" height="2"/>
<rect x="-278.9" y="260.9" width="2" height="2"/>
<rect x="-278.9" y="262.9" width="2" height="2"/>
<rect x="-278.9" y="264.9" width="2" height="2"/>
<rect x="-278.9" y="266.9" width="2" height="2"/>
<rect x="-278.9" y="268.9" width="2" height="2"/>
<rect x="-278.9" y="270.9" width="2" height="2"/>
<rect x="-278.9" y="272.9" width="2" height="2"/>
<rect x="-276.9" y="260.9" width="2" height="2"/>
<rect x="-274.9" y="260.9" width="2" height="2"/>
<rect x="-274.9" y="262.9" width="2" height="2"/>
<rect x="-274.9" y="264.9" width="2" height="2"/>
<rect x="-274.9" y="266.9" width="2" height="2"/>
<rect x="-274.9" y="268.9" width="2" height="2"/>
<rect x="-274.9" y="270.9" width="2" height="2"/>
<rect x="-274.9" y="272.9" width="2" height="2"/>
<rect x="-276.9" y="264.9" width="2" height="2"/>
<rect x="-276.9" y="268.9" width="2" height="2"/>
<rect x="-265.2" y="162.7" width="2" height="2"/>
<rect x="-265.2" y="164.7" width="2" height="2"/>
<rect x="-265.2" y="166.7" width="2" height="2"/>
<rect x="-265.2" y="168.7" width="2" height="2"/>
<rect x="-265.2" y="170.7" width="2" height="2"/>
<rect x="-265.2" y="172.7" width="2" height="2"/>
<rect x="-265.2" y="174.7" width="2" height="2"/>
<rect x="-261.2" y="162.7" width="2" height="2"/>
<rect x="-263.2" y="162.7" width="2" height="2"/>
<rect x="-261.2" y="166.7" width="2" height="2"/>
<rect x="-261.2" y="168.7" width="2" height="2"/>
<rect x="-261.2" y="170.7" width="2" height="2"/>
<rect x="-261.2" y="174.7" width="2" height="2"/>
<rect x="-263.2" y="174.7" width="2" height="2"/>
<rect x="-263.2" y="168.5" width="2" height="2"/>
<rect x="-265.2" y="181.9" width="2" height="2"/>
<rect x="-265.2" y="183.9" width="2" height="2"/>
<rect x="-265.2" y="185.9" width="2" height="2"/>
<rect x="-265.2" y="187.9" width="2" height="2"/>
<rect x="-265.2" y="189.9" width="2" height="2"/>
<rect x="-265.2" y="191.9" width="2" height="2"/>
<rect x="-265.2" y="193.9" width="2" height="2"/>
<rect x="-261.2" y="181.9" width="2" height="2"/>
<rect x="-261.2" y="185.9" width="2" height="2"/>
<rect x="-261.2" y="187.9" width="2" height="2"/>
<rect x="-261.2" y="189.9" width="2" height="2"/>
<rect x="-261.2" y="193.9" width="2" height="2"/>
<rect x="-263.2" y="187.7" width="2" height="2"/>
<rect x="-251.2" y="162.7" width="2" height="2"/>
<rect x="-247.2" y="164.7" width="2" height="2"/>
<rect x="-251.2" y="166.7" width="2" height="2"/>
<rect x="-251.2" y="168.7" width="2" height="2"/>
<rect x="-251.2" y="170.7" width="2" height="2"/>
<rect x="-251.2" y="172.7" width="2" height="2"/>
<rect x="-251.2" y="174.7" width="2" height="2"/>
<rect x="-247.2" y="162.7" width="2" height="2"/>
<rect x="-249.2" y="162.7" width="2" height="2"/>
<rect x="-247.2" y="166.7" width="2" height="2"/>
<rect x="-247.2" y="168.7" width="2" height="2"/>
<rect x="-247.2" y="170.7" width="2" height="2"/>
<rect x="-247.2" y="174.7" width="2" height="2"/>
<rect x="-249.2" y="174.7" width="2" height="2"/>
<rect x="-249.2" y="168.5" width="2" height="2"/>
<rect x="-251.2" y="181.7" width="2" height="2"/>
<rect x="-247.2" y="183.7" width="2" height="2"/>
<rect x="-251.2" y="185.7" width="2" height="2"/>
<rect x="-251.2" y="187.7" width="2" height="2"/>
<rect x="-251.2" y="189.7" width="2" height="2"/>
<rect x="-251.2" y="191.7" width="2" height="2"/>
<rect x="-251.2" y="193.7" width="2" height="2"/>
<rect x="-247.2" y="181.7" width="2" height="2"/>
<rect x="-249.2" y="181.7" width="2" height="2"/>
<rect x="-247.2" y="185.7" width="2" height="2"/>
<rect x="-247.2" y="187.7" width="2" height="2"/>
<rect x="-247.2" y="189.7" width="2" height="2"/>
<rect x="-247.2" y="193.7" width="2" height="2"/>
<rect x="-249.2" y="193.7" width="2" height="2"/>
<rect x="-249.2" y="185.7" width="2" height="2"/>
<rect x="-351.1" y="162.5" width="2" height="2"/>
<rect x="-351.1" y="164.5" width="2" height="2"/>
<rect x="-351.1" y="166.5" width="2" height="2"/>
<rect x="-351.1" y="168.5" width="2" height="2"/>
<rect x="-351.1" y="170.5" width="2" height="2"/>
<rect x="-351.1" y="172.5" width="2" height="2"/>
<rect x="-351.1" y="174.5" width="2" height="2"/>
<rect x="-347.1" y="162.5" width="2" height="2"/>
<rect x="-347.1" y="166.5" width="2" height="2"/>
<rect x="-347.1" y="168.5" width="2" height="2"/>
<rect x="-347.1" y="170.5" width="2" height="2"/>
<rect x="-347.1" y="174.5" width="2" height="2"/>
<rect x="-351.1" y="307.5" width="2" height="2"/>
<rect x="-351.1" y="309.5" width="2" height="2"/>
<rect x="-351.1" y="311.5" width="2" height="2"/>
<rect x="-351.1" y="313.5" width="2" height="2"/>
<rect x="-351.1" y="315.5" width="2" height="2"/>
<rect x="-351.1" y="319.5" width="2" height="2"/>
<rect x="-347.1" y="307.5" width="2" height="2"/>
<rect x="-347.1" y="311.5" width="2" height="2"/>
<rect x="-347.1" y="313.5" width="2" height="2"/>
<rect x="-347.1" y="315.5" width="2" height="2"/>
<rect x="-347.1" y="319.5" width="2" height="2"/>
<rect x="-436.7" y="266.9" width="2" height="2"/>
<rect x="-434.7" y="266.9" width="2" height="2"/>
<rect x="-436.7" y="268.9" width="2" height="2"/>
<rect x="-436.7" y="270.9" width="2" height="2"/>
<rect x="-436.7" y="272.9" width="2" height="2"/>
<rect x="-436.7" y="274.9" width="2" height="2"/>
<rect x="-436.7" y="278.9" width="2" height="2"/>
<rect x="-434.7" y="278.9" width="2" height="2"/>
<rect x="-432.7" y="266.9" width="2" height="2"/>
<rect x="-432.7" y="270.9" width="2" height="2"/>
<rect x="-432.7" y="272.9" width="2" height="2"/>
<rect x="-434.7" y="272.9" width="2" height="2"/>
<rect x="-432.7" y="274.9" width="2" height="2"/>
<rect x="-432.7" y="278.9" width="2" height="2"/>
<rect x="-351.1" y="327.3" width="2" height="2"/>
<rect x="-351.1" y="329.3" width="2" height="2"/>
<rect x="-351.1" y="331.3" width="2" height="2"/>
<rect x="-351.1" y="335.3" width="2" height="2"/>
<rect x="-351.1" y="339.3" width="2" height="2"/>
<rect x="-347.1" y="327.3" width="2" height="2"/>
<rect x="-347.1" y="331.3" width="2" height="2"/>
<rect x="-347.1" y="333.3" width="2" height="2"/>
<rect x="-347.1" y="335.3" width="2" height="2"/>
<rect x="-347.1" y="339.3" width="2" height="2"/>
<rect x="-351.1" y="183.7" width="2" height="2"/>
<rect x="-351.1" y="185.7" width="2" height="2"/>
<rect x="-351.1" y="187.7" width="2" height="2"/>
<rect x="-351.1" y="189.7" width="2" height="2"/>
<rect x="-351.1" y="193.7" width="2" height="2"/>
<rect x="-351.1" y="195.7" width="2" height="2"/>
<rect x="-347.1" y="183.7" width="2" height="2"/>
<rect x="-347.1" y="187.7" width="2" height="2"/>
<rect x="-347.1" y="189.7" width="2" height="2"/>
<rect x="-347.1" y="191.7" width="2" height="2"/>
<rect x="-347.1" y="195.7" width="2" height="2"/>
<rect x="-351.1" y="227.2" width="2" height="2"/>
<rect x="-351.1" y="229.2" width="2" height="2"/>
<rect x="-351.1" y="235.2" width="2" height="2"/>
<rect x="-351.1" y="233.2" width="2" height="2"/>
<rect x="-351.1" y="237.2" width="2" height="2"/>
<rect x="-351.1" y="239.2" width="2" height="2"/>
<rect x="-347.1" y="227.2" width="2" height="2"/>
<rect x="-347.1" y="231.2" width="2" height="2"/>
<rect x="-347.1" y="233.2" width="2" height="2"/>
<rect x="-347.1" y="235.2" width="2" height="2"/>
<rect x="-347.1" y="239.2" width="2" height="2"/>
<rect x="-351.1" y="205.5" width="2" height="2"/>
<rect x="-351.1" y="207.5" width="2" height="2"/>
<rect x="-351.1" y="211.5" width="2" height="2"/>
<rect x="-351.1" y="215.5" width="2" height="2"/>
<rect x="-351.1" y="217.5" width="2" height="2"/>
<rect x="-347.1" y="205.5" width="2" height="2"/>
<rect x="-347.1" y="209.5" width="2" height="2"/>
<rect x="-347.1" y="211.5" width="2" height="2"/>
<rect x="-347.1" y="213.5" width="2" height="2"/>
<rect x="-347.1" y="217.5" width="2" height="2"/>
<rect x="-351.1" y="246.7" width="2" height="2"/>
<rect x="-351.1" y="250.7" width="2" height="2"/>
<rect x="-351.1" y="252.7" width="2" height="2"/>
<rect x="-351.1" y="254.7" width="2" height="2"/>
<rect x="-351.1" y="256.7" width="2" height="2"/>
<rect x="-351.1" y="258.7" width="2" height="2"/>
<rect x="-347.1" y="246.7" width="2" height="2"/>
<rect x="-347.1" y="250.7" width="2" height="2"/>
<rect x="-347.1" y="252.7" width="2" height="2"/>
<rect x="-347.1" y="254.7" width="2" height="2"/>
<rect x="-347.1" y="258.7" width="2" height="2"/>
<rect x="-351.1" y="266.9" width="2" height="2"/>
<rect x="-351.1" y="270.9" width="2" height="2"/>
<rect x="-351.1" y="274.9" width="2" height="2"/>
<rect x="-351.1" y="276.9" width="2" height="2"/>
<rect x="-351.1" y="278.9" width="2" height="2"/>
<rect x="-347.1" y="266.9" width="2" height="2"/>
<rect x="-347.1" y="270.9" width="2" height="2"/>
<rect x="-347.1" y="272.9" width="2" height="2"/>
<rect x="-347.1" y="274.9" width="2" height="2"/>
<rect x="-347.1" y="278.9" width="2" height="2"/>
<rect x="-351.1" y="287.5" width="2" height="2"/>
<rect x="-351.1" y="291.5" width="2" height="2"/>
<rect x="-351.1" y="295.5" width="2" height="2"/>
<rect x="-351.1" y="299.5" width="2" height="2"/>
<rect x="-347.1" y="287.5" width="2" height="2"/>
<rect x="-347.1" y="291.5" width="2" height="2"/>
<rect x="-347.1" y="293.5" width="2" height="2"/>
<rect x="-347.1" y="295.5" width="2" height="2"/>
<rect x="-347.1" y="299.5" width="2" height="2"/>
<rect x="-400.9" y="162.5" width="2" height="2"/>
<rect x="-398.9" y="162.5" width="2" height="2"/>
<rect x="-400.9" y="164.5" width="2" height="2"/>
<rect x="-400.9" y="166.5" width="2" height="2"/>
<rect x="-400.9" y="168.5" width="2" height="2"/>
<rect x="-400.9" y="170.5" width="2" height="2"/>
<rect x="-400.9" y="172.5" width="2" height="2"/>
<rect x="-400.9" y="174.5" width="2" height="2"/>
<rect x="-398.9" y="174.5" width="2" height="2"/>
<rect x="-398.9" y="183.7" width="2" height="2"/>
<rect x="-398.9" y="195.7" width="2" height="2"/>
<rect x="-398.9" y="205.5" width="2" height="2"/>
<rect x="-398.9" y="217.5" width="2" height="2"/>
<rect x="-398.9" y="227.2" width="2" height="2"/>
<rect x="-398.9" y="239.2" width="2" height="2"/>
<rect x="-398.9" y="246.7" width="2" height="2"/>
<rect x="-398.9" y="258.7" width="2" height="2"/>
<rect x="-398.9" y="266.9" width="2" height="2"/>
<rect x="-398.9" y="278.9" width="2" height="2"/>
<rect x="-398.9" y="287.5" width="2" height="2"/>
<rect x="-398.9" y="299.5" width="2" height="2"/>
<rect x="-398.9" y="306.5" width="2" height="2"/>
<rect x="-398.9" y="318.5" width="2" height="2"/>
<rect x="-396.9" y="162.5" width="2" height="2"/>
<rect x="-396.9" y="166.5" width="2" height="2"/>
<rect x="-396.9" y="168.5" width="2" height="2"/>
<rect x="-396.9" y="170.5" width="2" height="2"/>
<rect x="-396.9" y="174.5" width="2" height="2"/>
<rect x="-400.9" y="306.5" width="2" height="2"/>
<rect x="-400.9" y="308.5" width="2" height="2"/>
<rect x="-400.9" y="310.5" width="2" height="2"/>
<rect x="-400.9" y="314.5" width="2" height="2"/>
<rect x="-400.9" y="318.5" width="2" height="2"/>
<rect x="-396.9" y="306.5" width="2" height="2"/>
<rect x="-396.9" y="310.5" width="2" height="2"/>
<rect x="-396.9" y="312.5" width="2" height="2"/>
<rect x="-396.9" y="314.5" width="2" height="2"/>
<rect x="-396.9" y="318.5" width="2" height="2"/>
<rect x="-400.9" y="183.7" width="2" height="2"/>
<rect x="-400.9" y="185.7" width="2" height="2"/>
<rect x="-400.9" y="187.7" width="2" height="2"/>
<rect x="-400.9" y="189.7" width="2" height="2"/>
<rect x="-400.9" y="193.7" width="2" height="2"/>
<rect x="-400.9" y="195.7" width="2" height="2"/>
<rect x="-396.9" y="183.7" width="2" height="2"/>
<rect x="-396.9" y="187.7" width="2" height="2"/>
<rect x="-396.9" y="189.7" width="2" height="2"/>
<rect x="-396.9" y="191.7" width="2" height="2"/>
<rect x="-396.9" y="195.7" width="2" height="2"/>
<rect x="-400.9" y="227.2" width="2" height="2"/>
<rect x="-400.9" y="229.2" width="2" height="2"/>
<rect x="-400.9" y="235.2" width="2" height="2"/>
<rect x="-400.9" y="233.2" width="2" height="2"/>
<rect x="-400.9" y="237.2" width="2" height="2"/>
<rect x="-400.9" y="239.2" width="2" height="2"/>
<rect x="-396.9" y="227.2" width="2" height="2"/>
<rect x="-396.9" y="231.2" width="2" height="2"/>
<rect x="-396.9" y="233.2" width="2" height="2"/>
<rect x="-396.9" y="235.2" width="2" height="2"/>
<rect x="-396.9" y="239.2" width="2" height="2"/>
<rect x="-400.9" y="205.5" width="2" height="2"/>
<rect x="-400.9" y="207.5" width="2" height="2"/>
<rect x="-400.9" y="211.5" width="2" height="2"/>
<rect x="-400.9" y="215.5" width="2" height="2"/>
<rect x="-400.9" y="217.5" width="2" height="2"/>
<rect x="-396.9" y="205.5" width="2" height="2"/>
<rect x="-396.9" y="209.5" width="2" height="2"/>
<rect x="-396.9" y="211.5" width="2" height="2"/>
<rect x="-396.9" y="213.5" width="2" height="2"/>
<rect x="-396.9" y="217.5" width="2" height="2"/>
<rect x="-478.7" y="164.5" width="2" height="2"/>
<rect x="-478.7" y="176.5" width="2" height="2"/>
<rect x="-480.7" y="164.5" width="2" height="2"/>
<rect x="-480.7" y="166.5" width="2" height="2"/>
<rect x="-480.7" y="170.5" width="2" height="2"/>
<rect x="-480.7" y="172.5" width="2" height="2"/>
<rect x="-480.7" y="168.5" width="2" height="2"/>
<rect x="-480.7" y="174.5" width="2" height="2"/>
<rect x="-480.7" y="176.5" width="2" height="2"/>
<rect x="-476.7" y="164.5" width="2" height="2"/>
<rect x="-476.7" y="166.5" width="2" height="2"/>
<rect x="-476.7" y="170.5" width="2" height="2"/>
<rect x="-476.7" y="174.5" width="2" height="2"/>
<rect x="-476.7" y="176.5" width="2" height="2"/>
<rect x="-478.7" y="242.7" width="2" height="2"/>
<rect x="-478.7" y="254.7" width="2" height="2"/>
<rect x="-480.7" y="242.7" width="2" height="2"/>
<rect x="-480.7" y="244.7" width="2" height="2"/>
<rect x="-480.7" y="248.7" width="2" height="2"/>
<rect x="-478.7" y="248.7" width="2" height="2"/>
<rect x="-480.7" y="252.7" width="2" height="2"/>
<rect x="-480.7" y="254.7" width="2" height="2"/>
<rect x="-476.7" y="242.7" width="2" height="2"/>
<rect x="-476.7" y="244.7" width="2" height="2"/>
<rect x="-476.7" y="248.7" width="2" height="2"/>
<rect x="-476.7" y="252.7" width="2" height="2"/>
<rect x="-476.7" y="254.7" width="2" height="2"/>
<rect x="-478.7" y="223.2" width="2" height="2"/>
<rect x="-478.7" y="235.2" width="2" height="2"/>
<rect x="-480.7" y="223.2" width="2" height="2"/>
<rect x="-480.7" y="225.2" width="2" height="2"/>
<rect x="-480.7" y="229.2" width="2" height="2"/>
<rect x="-480.7" y="233.2" width="2" height="2"/>
<rect x="-480.7" y="235.2" width="2" height="2"/>
<rect x="-476.7" y="223.2" width="2" height="2"/>
<rect x="-476.7" y="225.2" width="2" height="2"/>
<rect x="-476.7" y="229.2" width="2" height="2"/>
<rect x="-476.7" y="233.2" width="2" height="2"/>
<rect x="-476.7" y="235.2" width="2" height="2"/>
<rect x="-478.7" y="261.9" width="2" height="2"/>
<rect x="-478.7" y="273.9" width="2" height="2"/>
<rect x="-480.7" y="261.9" width="2" height="2"/>
<rect x="-480.7" y="263.9" width="2" height="2"/>
<rect x="-480.7" y="267.9" width="2" height="2"/>
<rect x="-480.7" y="269.9" width="2" height="2"/>
<rect x="-478.7" y="267.9" width="2" height="2"/>
<rect x="-480.7" y="271.9" width="2" height="2"/>
<rect x="-480.7" y="273.9" width="2" height="2"/>
<rect x="-476.7" y="261.9" width="2" height="2"/>
<rect x="-476.7" y="263.9" width="2" height="2"/>
<rect x="-476.7" y="267.9" width="2" height="2"/>
<rect x="-476.7" y="271.9" width="2" height="2"/>
<rect x="-476.7" y="273.9" width="2" height="2"/>
<rect x="-478.7" y="281.5" width="2" height="2"/>
<rect x="-478.7" y="293.5" width="2" height="2"/>
<rect x="-480.7" y="281.5" width="2" height="2"/>
<rect x="-480.7" y="283.5" width="2" height="2"/>
<rect x="-480.7" y="287.5" width="2" height="2"/>
<rect x="-478.7" y="287.5" width="2" height="2"/>
<rect x="-480.7" y="291.5" width="2" height="2"/>
<rect x="-480.7" y="293.5" width="2" height="2"/>
<rect x="-476.7" y="281.5" width="2" height="2"/>
<rect x="-476.7" y="283.5" width="2" height="2"/>
<rect x="-476.7" y="287.5" width="2" height="2"/>
<rect x="-476.7" y="285.5" width="2" height="2"/>
<rect x="-476.7" y="291.5" width="2" height="2"/>
<rect x="-476.7" y="293.5" width="2" height="2"/>
<rect x="-400.9" y="246.7" width="2" height="2"/>
<rect x="-400.9" y="250.7" width="2" height="2"/>
<rect x="-400.9" y="252.7" width="2" height="2"/>
<rect x="-400.9" y="254.7" width="2" height="2"/>
<rect x="-400.9" y="256.7" width="2" height="2"/>
<rect x="-400.9" y="258.7" width="2" height="2"/>
<rect x="-396.9" y="246.7" width="2" height="2"/>
<rect x="-396.9" y="250.7" width="2" height="2"/>
<rect x="-396.9" y="252.7" width="2" height="2"/>
<rect x="-396.9" y="254.7" width="2" height="2"/>
<rect x="-396.9" y="258.7" width="2" height="2"/>
<rect x="-400.9" y="266.9" width="2" height="2"/>
<rect x="-400.9" y="270.9" width="2" height="2"/>
<rect x="-400.9" y="274.9" width="2" height="2"/>
<rect x="-400.9" y="276.9" width="2" height="2"/>
<rect x="-400.9" y="278.9" width="2" height="2"/>
<rect x="-396.9" y="266.9" width="2" height="2"/>
<rect x="-396.9" y="270.9" width="2" height="2"/>
<rect x="-396.9" y="272.9" width="2" height="2"/>
<rect x="-396.9" y="274.9" width="2" height="2"/>
<rect x="-396.9" y="278.9" width="2" height="2"/>
<rect x="-400.9" y="287.5" width="2" height="2"/>
<rect x="-400.9" y="291.5" width="2" height="2"/>
<rect x="-400.9" y="295.5" width="2" height="2"/>
<rect x="-400.9" y="299.5" width="2" height="2"/>
<rect x="-396.9" y="287.5" width="2" height="2"/>
<rect x="-396.9" y="291.5" width="2" height="2"/>
<rect x="-396.9" y="293.5" width="2" height="2"/>
<rect x="-396.9" y="295.5" width="2" height="2"/>
<rect x="-396.9" y="299.5" width="2" height="2"/>
<rect x="-436.7" y="162.5" width="2" height="2"/>
<rect x="-434.7" y="162.5" width="2" height="2"/>
<rect x="-436.7" y="164.5" width="2" height="2"/>
<rect x="-436.7" y="166.5" width="2" height="2"/>
<rect x="-436.7" y="168.5" width="2" height="2"/>
<rect x="-436.7" y="170.5" width="2" height="2"/>
<rect x="-436.7" y="172.5" width="2" height="2"/>
<rect x="-436.7" y="174.5" width="2" height="2"/>
<rect x="-434.7" y="174.5" width="2" height="2"/>
<rect x="-434.7" y="183.7" width="2" height="2"/>
<rect x="-434.7" y="195.7" width="2" height="2"/>
<rect x="-434.7" y="205.5" width="2" height="2"/>
<rect x="-434.7" y="217.5" width="2" height="2"/>
<rect x="-434.7" y="227.2" width="2" height="2"/>
<rect x="-434.7" y="239.2" width="2" height="2"/>
<rect x="-434.7" y="246.7" width="2" height="2"/>
<rect x="-434.7" y="258.7" width="2" height="2"/>
<rect x="-432.7" y="162.5" width="2" height="2"/>
<rect x="-432.7" y="166.5" width="2" height="2"/>
<rect x="-432.7" y="168.5" width="2" height="2"/>
<rect x="-434.7" y="168.5" width="2" height="2"/>
<rect x="-432.7" y="170.5" width="2" height="2"/>
<rect x="-432.7" y="174.5" width="2" height="2"/>
<rect x="-436.7" y="183.7" width="2" height="2"/>
<rect x="-436.7" y="185.7" width="2" height="2"/>
<rect x="-436.7" y="187.7" width="2" height="2"/>
<rect x="-436.7" y="189.7" width="2" height="2"/>
<rect x="-436.7" y="193.7" width="2" height="2"/>
<rect x="-436.7" y="195.7" width="2" height="2"/>
<rect x="-432.7" y="183.7" width="2" height="2"/>
<rect x="-432.7" y="187.7" width="2" height="2"/>
<rect x="-432.7" y="189.7" width="2" height="2"/>
<rect x="-434.7" y="189.7" width="2" height="2"/>
<rect x="-432.7" y="191.7" width="2" height="2"/>
<rect x="-432.7" y="195.7" width="2" height="2"/>
<rect x="-436.7" y="227.2" width="2" height="2"/>
<rect x="-436.7" y="229.2" width="2" height="2"/>
<rect x="-436.7" y="235.2" width="2" height="2"/>
<rect x="-436.7" y="233.2" width="2" height="2"/>
<rect x="-436.7" y="237.2" width="2" height="2"/>
<rect x="-436.7" y="239.2" width="2" height="2"/>
<rect x="-432.7" y="227.2" width="2" height="2"/>
<rect x="-432.7" y="231.2" width="2" height="2"/>
<rect x="-432.7" y="233.2" width="2" height="2"/>
<rect x="-434.7" y="233.2" width="2" height="2"/>
<rect x="-432.7" y="235.2" width="2" height="2"/>
<rect x="-432.7" y="239.2" width="2" height="2"/>
<rect x="-436.7" y="205.5" width="2" height="2"/>
<rect x="-436.7" y="207.5" width="2" height="2"/>
<rect x="-436.7" y="211.5" width="2" height="2"/>
<rect x="-436.7" y="215.5" width="2" height="2"/>
<rect x="-436.7" y="217.5" width="2" height="2"/>
<rect x="-432.7" y="205.5" width="2" height="2"/>
<rect x="-432.7" y="209.5" width="2" height="2"/>
<rect x="-432.7" y="211.5" width="2" height="2"/>
<rect x="-434.7" y="211.5" width="2" height="2"/>
<rect x="-432.7" y="213.5" width="2" height="2"/>
<rect x="-432.7" y="217.5" width="2" height="2"/>
<rect x="-436.7" y="246.7" width="2" height="2"/>
<rect x="-436.7" y="250.7" width="2" height="2"/>
<rect x="-436.7" y="252.7" width="2" height="2"/>
<rect x="-436.7" y="254.7" width="2" height="2"/>
<rect x="-436.7" y="256.7" width="2" height="2"/>
<rect x="-436.7" y="258.7" width="2" height="2"/>
<rect x="-432.7" y="246.7" width="2" height="2"/>
<rect x="-432.7" y="250.7" width="2" height="2"/>
<rect x="-432.7" y="252.7" width="2" height="2"/>
<rect x="-434.7" y="252.7" width="2" height="2"/>
<rect x="-432.7" y="254.7" width="2" height="2"/>
<rect x="-432.7" y="258.7" width="2" height="2"/>
<rect x="-171.9" y="309.3" width="8" height="8"/>
<rect x="-171.9" y="325.3" width="8" height="8"/>
<rect x="-171.9" y="333.3" width="8" height="8"/>
<rect x="-171.9" y="341.3" width="8" height="8"/>
<rect x="-171.9" y="357.3" width="8" height="8"/>
<rect x="-163.9" y="309.3" width="8" height="8"/>
<rect x="-163.9" y="325.3" width="8" height="8"/>
<rect x="-163.9" y="341.3" width="8" height="8"/>
<rect x="-163.9" y="357.3" width="8" height="8"/>
<rect x="-155.9" y="309.3" width="8" height="8"/>
<rect x="-155.9" y="325.3" width="8" height="8"/>
<rect x="-155.9" y="341.3" width="8" height="8"/>
<rect x="-155.9" y="349.3" width="8" height="8"/>
<rect x="-155.9" y="357.3" width="8" height="8"/>
<rect x="-147.9" y="309.3" width="8" height="8"/>
<rect x="-171.9" y="309.3" width="8" height="8"/>
<rect x="-179.9" y="309.3" width="8" height="8"/>
<rect x="-155.9" y="309.3" width="8" height="8"/>
<rect x="-139.9" y="309.3" width="8" height="8"/>
<rect x="-139.9" y="317.3" width="8" height="8"/>
<rect x="-139.9" y="333.3" width="8" height="8"/>
<rect x="-139.9" y="341.3" width="8" height="8"/>
<rect x="-139.9" y="349.3" width="8" height="8"/>
<rect x="-139.9" y="357.3" width="8" height="8"/>
<rect x="-131.9" y="333.3" width="8" height="8"/>
<rect x="-131.9" y="357.3" width="8" height="8"/>
<rect x="-123.9" y="309.3" width="8" height="8"/>
<rect x="-123.9" y="317.3" width="8" height="8"/>
<rect x="-123.9" y="325.3" width="8" height="8"/>
<rect x="-123.9" y="333.3" width="8" height="8"/>
<rect x="-123.9" y="341.3" width="8" height="8"/>
<rect x="-123.9" y="349.3" width="8" height="8"/>
<rect x="-123.9" y="357.3" width="8" height="8"/>
<rect x="-115.9" y="357.3" width="8" height="8"/>
<rect x="-139.9" y="309.3" width="8" height="8"/>
<rect x="-139.9" y="317.3" width="8" height="8"/>
<rect x="-107.9" y="309.3" width="8" height="8"/>
<rect x="-107.9" y="317.3" width="8" height="8"/>
<rect x="-107.9" y="325.3" width="8" height="8"/>
<rect x="-107.9" y="333.3" width="8" height="8"/>
<rect x="-107.9" y="341.3" width="8" height="8"/>
<rect x="-107.9" y="349.3" width="8" height="8"/>
<rect x="-107.9" y="357.3" width="8" height="8"/>
<rect x="-99.9" y="309.3" width="8" height="8"/>
<rect x="-99.9" y="325.3" width="8" height="8"/>
<rect x="-91.9" y="309.3" width="8" height="8"/>
<rect x="-91.9" y="325.3" width="8" height="8"/>
<rect x="-83.9" y="309.3" width="8" height="8"/>
<rect x="-91.9" y="341.3" width="8" height="8"/>
<rect x="-91.9" y="349.3" width="8" height="8"/>
<rect x="-91.9" y="357.3" width="8" height="8"/>
<rect x="-75.9" y="309.3" width="8" height="8"/>
<rect x="-75.9" y="317.3" width="8" height="8"/>
<rect x="-75.9" y="333.3" width="8" height="8"/>
<rect x="-75.9" y="341.3" width="8" height="8"/>
<rect x="-75.9" y="349.3" width="8" height="8"/>
<rect x="-75.9" y="357.3" width="8" height="8"/>
<rect x="-67.9" y="333.3" width="8" height="8"/>
<rect x="-67.9" y="357.3" width="8" height="8"/>
<rect x="-59.9" y="309.3" width="8" height="8"/>
<rect x="-59.9" y="317.3" width="8" height="8"/>
<rect x="-59.9" y="325.3" width="8" height="8"/>
<rect x="-59.9" y="333.3" width="8" height="8"/>
<rect x="-59.9" y="341.3" width="8" height="8"/>
<rect x="-59.9" y="349.3" width="8" height="8"/>
<rect x="-59.9" y="357.3" width="8" height="8"/>
<rect x="-51.9" y="357.3" width="8" height="8"/>
<rect x="-75.9" y="309.3" width="8" height="8"/>
<rect x="-75.9" y="317.3" width="8" height="8"/>
<rect x="-43.9" y="309.3" width="8" height="8"/>
<rect x="-43.9" y="317.3" width="8" height="8"/>
<rect x="-43.9" y="325.3" width="8" height="8"/>
<rect x="-43.9" y="333.3" width="8" height="8"/>
<rect x="-43.9" y="341.3" width="8" height="8"/>
<rect x="-43.9" y="357.3" width="8" height="8"/>
<rect x="-35.9" y="309.3" width="8" height="8"/>
<rect x="-35.9" y="341.3" width="8" height="8"/>
<rect x="-35.9" y="357.3" width="8" height="8"/>
<rect x="-27.9" y="309.3" width="8" height="8"/>
<rect x="-27.9" y="317.3" width="8" height="8"/>
<rect x="-27.9" y="325.3" width="8" height="8"/>
<rect x="-27.9" y="341.3" width="8" height="8"/>
<rect x="-27.9" y="349.3" width="8" height="8"/>
<rect x="-27.9" y="357.3" width="8" height="8"/>
<rect x="-203.9" y="309.3" width="8" height="8"/>
<rect x="-203.9" y="317.3" width="8" height="8"/>
<rect x="-203.9" y="333.3" width="8" height="8"/>
<rect x="-203.9" y="357.3" width="8" height="8"/>
<rect x="-195.9" y="309.3" width="8" height="8"/>
<rect x="-195.9" y="333.3" width="8" height="8"/>
<rect x="-195.9" y="357.3" width="8" height="8"/>
<rect x="-187.9" y="309.3" width="8" height="8"/>
<rect x="-187.9" y="317.3" width="8" height="8"/>
<rect x="-187.9" y="333.3" width="8" height="8"/>
<rect x="-187.9" y="349.3" width="8" height="8"/>
<rect x="-187.9" y="357.3" width="8" height="8"/>
</svg>
