<!-- Generator: Adobe Illustrator 19.0.1, SVG Export Plug-In  -->
<svg version="1.1"
	 xmlns="http://www.w3.org/2000/svg" xmlns:xlink="http://www.w3.org/1999/xlink" xmlns:a="http://ns.adobe.com/AdobeSVGViewerExtensions/3.0/"
	 x="0px" y="0px" width="161.1px" height="76.5px" viewBox="0 0 161.1 76.5" enable-background="new 0 0 161.1 76.5"
	 xml:space="preserve">
<defs>
</defs>
<path d="M0,0v76.5h161v-51h0.2V0H0z M152.6,25.5h-0.2V68H8.5V8.5h144.1V25.5z"/>
<polygon points="144.4,17 144.4,34 127.5,34 127.5,42.5 144.4,42.5 144.4,59.5 135.9,59.5 135.9,51 127.5,51 127.5,59.5 119,59.5 
	119,17 127.5,17 127.5,25.5 135.9,25.5 135.9,17 "/>
<polygon points="110.5,17 110.5,34 102,34 102,25.5 93.5,25.5 93.5,51 102,51 102,42.5 110.5,42.5 110.5,59.5 85,59.5 85,17 "/>
<path d="M51,17v42.5h8.5v-17H68v17h8.5V17H51z M68,34h-8.5v-8.5H68V34z"/>
</svg>
