<?xml version="1.0" encoding="utf-8"?>
<!-- Generator: Adobe Illustrator 19.0.1, SVG Export Plug-In . SVG Version: 6.00 Build 0)  -->
<!DOCTYPE svg PUBLIC "-//W3C//DTD SVG 1.1//EN" "http://www.w3.org/Graphics/SVG/1.1/DTD/svg11.dtd">
<svg version="1.1" id="Layer_1" xmlns="http://www.w3.org/2000/svg" xmlns:xlink="http://www.w3.org/1999/xlink" x="0px" y="0px"
	 viewBox="-878 502.5 161.1 76.5" style="enable-background:new -878 502.5 161.1 76.5;" xml:space="preserve">
<style type="text/css">
	.st0{fill:#00FFFF;}
</style>
<path class="st0" d="M-878,502.5V579h161v-51h0.2v-25.5H-878z M-725.4,528h-0.2v42.5h-143.9V511h144.1V528z"/>
<polygon class="st0" points="-733.6,519.5 -733.6,536.5 -750.5,536.5 -750.5,545 -733.6,545 -733.6,562 -742.1,562 -742.1,553.5 
	-750.5,553.5 -750.5,562 -759,562 -759,519.5 -750.5,519.5 -750.5,528 -742.1,528 -742.1,519.5 "/>
<polygon class="st0" points="-767.5,519.5 -767.5,536.5 -776,536.5 -776,528 -784.5,528 -784.5,553.5 -776,553.5 -776,545 
	-767.5,545 -767.5,562 -793,562 -793,519.5 "/>
<path class="st0" d="M-827,519.5V562h8.5v-17h8.5v17h8.5v-42.5H-827z M-810,536.5h-8.5V528h8.5V536.5z"/>
<path class="st0" d="M-861,519.5V562h25.5v-42.5H-861z M-844,553.5h-8.5V545h8.5V553.5z M-844,536.5h-8.5V528h8.5V536.5z"/>
</svg>
